<svg xmlns="http://www.w3.org/2000/svg" version="1.1" width="600px" height="600px" viewBox="0 0 200 200" style="overflow:hidden!important;"><defs id="SvgjsDefs3215"><radialGradient id="SvgjsRadialGradient3281" cx="100" cy="114" r="41" gradientUnits="userSpaceOnUse" class="svga-on-canvas-facehighlight-gradient-single-0"><stop id="SvgjsStop3282" stop-opacity="0.5" stop-color="#ffe4d6" offset="0" ></stop><stop id="SvgjsStop3283" stop-opacity="0" stop-color="#f0c7b1" offset="0.9" ></stop></radialGradient><radialGradient id="SvgjsRadialGradient3285" cx="100" cy="54" r="37" gradientUnits="userSpaceOnUse" class="svga-on-canvas-facehighlight-gradient-single-1"><stop id="SvgjsStop3286" stop-opacity="0.5" stop-color="#ffe4d6" offset="0" ></stop><stop id="SvgjsStop3287" stop-opacity="0" stop-color="#f0c7b1" offset="0.9" ></stop></radialGradient><radialGradient id="SvgjsRadialGradient3370" cx="-568.659" cy="-521.042" r="59.751" gradientTransform="matrix(0.096 -0.0248 0.0245 0.0961 141.2814 119.9893)" gradientUnits="userSpaceOnUse" class="svga-on-canvas-eyesiris-gradient-left-1"><stop id="SvgjsStop3371" stop-opacity="1" stop-color="#ffffff" offset="0" ></stop><stop id="SvgjsStop3372" stop-opacity="0" stop-color="#ffffff" offset="1" ></stop></radialGradient><radialGradient id="SvgjsRadialGradient3374" cx="-582.838" cy="-519.099" r="59.745" gradientTransform="matrix(0.0991 8.856319e-004 -0.0011 0.0991 131.1134 135.9855)" gradientUnits="userSpaceOnUse" class="svga-on-canvas-eyesiris-gradient-left-2"><stop id="SvgjsStop3375" stop-opacity="1" stop-color="#ffffff" offset="0" ></stop><stop id="SvgjsStop3376" stop-opacity="0" stop-color="#ffffff" offset="1" ></stop></radialGradient><linearGradient id="SvgjsLinearGradient3380" x1="122.67" y1="88.268" x2="123.606" y2="87.152" gradientTransform="matrix(1 0 0 1 -52 0)" gradientUnits="userSpaceOnUse" class="svga-on-canvas-eyesiris-gradient-left-5"><stop id="SvgjsStop3381" stop-opacity="1" stop-color="#ffffff" offset="0" ></stop><stop id="SvgjsStop3382" stop-opacity="0" stop-color="#ffffff" offset="1" ></stop></linearGradient><linearGradient id="SvgjsLinearGradient3388" x1="129.636" y1="79.822" x2="127.91" y2="81.879" gradientTransform="matrix(1 0 0 1 -52 0)" gradientUnits="userSpaceOnUse" class="svga-on-canvas-eyesiris-gradient-left-7"><stop id="SvgjsStop3389" stop-opacity="1" stop-color="#ffffff" offset="0" ></stop><stop id="SvgjsStop3390" stop-opacity="0" stop-color="#ffffff" offset="1" ></stop></linearGradient><radialGradient id="SvgjsRadialGradient3393" cx="-568.654" cy="-521.042" r="59.752" gradientTransform="matrix(0.096 -0.0248 0.0245 0.0961 193.2804 119.9894)" gradientUnits="userSpaceOnUse" class="svga-on-canvas-eyesiris-gradient-right-1"><stop id="SvgjsStop3394" stop-opacity="1" stop-color="#ffffff" offset="0" ></stop><stop id="SvgjsStop3395" stop-opacity="0" stop-color="#ffffff" offset="1" ></stop></radialGradient><radialGradient id="SvgjsRadialGradient3397" cx="-582.833" cy="-519.102" r="59.747" gradientTransform="matrix(0.0991 8.856319e-004 -0.0011 0.0991 183.1126 135.9856)" gradientUnits="userSpaceOnUse" class="svga-on-canvas-eyesiris-gradient-right-2"><stop id="SvgjsStop3398" stop-opacity="1" stop-color="#ffffff" offset="0" ></stop><stop id="SvgjsStop3399" stop-opacity="0" stop-color="#ffffff" offset="1" ></stop></radialGradient><linearGradient id="SvgjsLinearGradient3403" x1="122.67" y1="88.268" x2="123.606" y2="87.152" gradientUnits="userSpaceOnUse" class="svga-on-canvas-eyesiris-gradient-right-5"><stop id="SvgjsStop3404" stop-opacity="1" stop-color="#ffffff" offset="0" ></stop><stop id="SvgjsStop3405" stop-opacity="0" stop-color="#ffffff" offset="1" ></stop></linearGradient><linearGradient id="SvgjsLinearGradient3411" x1="129.636" y1="79.822" x2="127.91" y2="81.879" gradientUnits="userSpaceOnUse" class="svga-on-canvas-eyesiris-gradient-right-7"><stop id="SvgjsStop3412" stop-opacity="1" stop-color="#ffffff" offset="0" ></stop><stop id="SvgjsStop3413" stop-opacity="0" stop-color="#ffffff" offset="1" ></stop></linearGradient><linearGradient id="SvgjsLinearGradient3544" x1="100" y1="172" x2="100" y2="122" gradientUnits="userSpaceOnUse" class="svga-on-canvas-chinshadow-gradient-single-0"><stop id="SvgjsStop3545" stop-opacity="0.8" stop-color="#e1ac8f" offset="0" ></stop><stop id="SvgjsStop3546" stop-opacity="1" stop-color="#c27b55" offset="0.7" ></stop></linearGradient><linearGradient id="SvgjsLinearGradient3575" x1="100" y1="141" x2="100" y2="137" gradientUnits="userSpaceOnUse" class="svga-on-canvas-mouth-gradient-single-0"><stop id="SvgjsStop3576" stop-opacity="1" stop-color="#e8b9a0" offset="0.1" ></stop><stop id="SvgjsStop3577" stop-opacity="1" stop-color="#e1ac8f" offset="1" ></stop></linearGradient><linearGradient id="SvgjsLinearGradient5010" x1="132" y1="78" x2="126" y2="84" gradientTransform="matrix(1 0 0 1 -50 0)" gradientUnits="userSpaceOnUse" class="svga-on-canvas-eyesiris-gradient-left-6"><stop id="SvgjsStop5011" stop-opacity="1" stop-color="#ffffff" offset="0" ></stop><stop id="SvgjsStop5012" stop-opacity="0" stop-color="#ffffff" offset="1" ></stop></linearGradient><linearGradient id="SvgjsLinearGradient5020" x1="132" y1="78" x2="126" y2="84" gradientUnits="userSpaceOnUse" class="svga-on-canvas-eyesiris-gradient-right-6"><stop id="SvgjsStop5021" stop-opacity="1" stop-color="#ffffff" offset="0" ></stop><stop id="SvgjsStop5022" stop-opacity="0" stop-color="#ffffff" offset="1" ></stop></linearGradient><radialGradient id="SvgjsRadialGradient5152" cx="125.861" cy="84.497" r="10.213" gradientTransform="matrix(-1 0 0 1 200 0)" gradientUnits="userSpaceOnUse" class="svga-on-canvas-eyesback-gradient-left-0"><stop id="SvgjsStop5153" stop-opacity="1" stop-color="#ffffff" offset="0" ></stop><stop id="SvgjsStop5154" stop-opacity="1" stop-color="#fdfefe" offset="0.544" ></stop><stop id="SvgjsStop5155" stop-opacity="1" stop-color="#f6f8f9" offset="0.74" ></stop><stop id="SvgjsStop5156" stop-opacity="1" stop-color="#eaeff2" offset="0.879" ></stop><stop id="SvgjsStop5157" stop-opacity="1" stop-color="#d9e3e8" offset="0.992" ></stop><stop id="SvgjsStop5158" stop-opacity="1" stop-color="#d8e2e7" offset="1" ></stop></radialGradient><radialGradient id="SvgjsRadialGradient5160" cx="125.861" cy="84.497" r="10.213" gradientUnits="userSpaceOnUse" class="svga-on-canvas-eyesback-gradient-right-0"><stop id="SvgjsStop5161" stop-opacity="1" stop-color="#ffffff" offset="0" ></stop><stop id="SvgjsStop5162" stop-opacity="1" stop-color="#fdfefe" offset="0.544" ></stop><stop id="SvgjsStop5163" stop-opacity="1" stop-color="#f6f8f9" offset="0.74" ></stop><stop id="SvgjsStop5164" stop-opacity="1" stop-color="#eaeff2" offset="0.879" ></stop><stop id="SvgjsStop5165" stop-opacity="1" stop-color="#d9e3e8" offset="0.992" ></stop><stop id="SvgjsStop5166" stop-opacity="1" stop-color="#d8e2e7" offset="1" ></stop></radialGradient><radialGradient id="SvgjsRadialGradient5168" cx="125.861" cy="84.497" r="10.213" gradientTransform="matrix(-1 0 0 1 200 0)" gradientUnits="userSpaceOnUse" class="svga-on-canvas-eyesfront-gradient-left-0"><stop id="SvgjsStop5169" stop-opacity="1" stop-color="#ffffff" offset="0" ></stop><stop id="SvgjsStop5170" stop-opacity="1" stop-color="#fdfefe" offset="0.544" ></stop><stop id="SvgjsStop5171" stop-opacity="1" stop-color="#f6f8f9" offset="0.74" ></stop><stop id="SvgjsStop5172" stop-opacity="1" stop-color="#eaeff2" offset="0.879" ></stop><stop id="SvgjsStop5173" stop-opacity="1" stop-color="#d9e3e8" offset="0.992" ></stop><stop id="SvgjsStop5174" stop-opacity="1" stop-color="#d8e2e7" offset="1" ></stop></radialGradient><radialGradient id="SvgjsRadialGradient5178" cx="123.755" cy="83.738" fx="136.189" fy="83.773" r="17.684" gradientTransform="matrix(0.9998 0.0208 0.0166 -0.7998 -48.8769 148.1393)" gradientUnits="userSpaceOnUse" class="svga-on-canvas-eyesfront-gradient-left-3"><stop id="SvgjsStop5179" stop-opacity="1" stop-color="#e1ac8f" offset="0" ></stop><stop id="SvgjsStop5180" stop-opacity="0.3" stop-color="#e1ac8f" offset="0.7" ></stop><stop id="SvgjsStop5181" stop-opacity="0" stop-color="#f0c7b1" offset="1" ></stop></radialGradient><radialGradient id="SvgjsRadialGradient5183" cx="122.636" cy="100.958" r="25.824" gradientTransform="matrix(-0.8746 -0.4848 -0.3636 0.656 221.3328 94.1879)" gradientUnits="userSpaceOnUse" class="svga-on-canvas-eyesfront-gradient-left-4"><stop id="SvgjsStop5184" stop-opacity="0" stop-color="#000000" offset="0.94" ></stop><stop id="SvgjsStop5185" stop-opacity="0.2" stop-color="#000000" offset="1" ></stop></radialGradient><radialGradient id="SvgjsRadialGradient5189" cx="125.861" cy="84.497" r="10.213" gradientUnits="userSpaceOnUse" class="svga-on-canvas-eyesfront-gradient-right-0"><stop id="SvgjsStop5190" stop-opacity="1" stop-color="#ffffff" offset="0" ></stop><stop id="SvgjsStop5191" stop-opacity="1" stop-color="#fdfefe" offset="0.544" ></stop><stop id="SvgjsStop5192" stop-opacity="1" stop-color="#f6f8f9" offset="0.74" ></stop><stop id="SvgjsStop5193" stop-opacity="1" stop-color="#eaeff2" offset="0.879" ></stop><stop id="SvgjsStop5194" stop-opacity="1" stop-color="#d9e3e8" offset="0.992" ></stop><stop id="SvgjsStop5195" stop-opacity="1" stop-color="#d8e2e7" offset="1" ></stop></radialGradient><radialGradient id="SvgjsRadialGradient5199" cx="123.755" cy="83.738" fx="136.19" fy="83.773" r="17.685" gradientTransform="matrix(-0.9998 0.0208 -0.0166 -0.7998 248.8769 148.1393)" gradientUnits="userSpaceOnUse" class="svga-on-canvas-eyesfront-gradient-right-3"><stop id="SvgjsStop5200" stop-opacity="1" stop-color="#e1ac8f" offset="0" ></stop><stop id="SvgjsStop5201" stop-opacity="0.3" stop-color="#e1ac8f" offset="0.7" ></stop><stop id="SvgjsStop5202" stop-opacity="0" stop-color="#f0c7b1" offset="1" ></stop></radialGradient><radialGradient id="SvgjsRadialGradient5204" cx="122.636" cy="100.958" r="25.824" gradientTransform="matrix(0.8746 -0.4848 0.3636 0.656 -21.3328 94.1879)" gradientUnits="userSpaceOnUse" class="svga-on-canvas-eyesfront-gradient-right-4"><stop id="SvgjsStop5205" stop-opacity="0" stop-color="#000000" offset="0.94" ></stop><stop id="SvgjsStop5206" stop-opacity="0.2" stop-color="#000000" offset="1" ></stop></radialGradient><radialGradient id="SvgjsRadialGradient5428" cx="100" cy="225" r="250" gradientUnits="userSpaceOnUse" class="svga-on-canvas-backs-gradient-single-1"><stop id="SvgjsStop5429" stop-opacity="0" stop-color="#ecf0f1" offset="0" ></stop><stop id="SvgjsStop5430" stop-opacity="1" stop-color="#c6dce2" offset="1" ></stop></radialGradient></defs><g id="svga-group-wrapper"><g id="svga-group-backs-single"><path id="SvgjsPath5431" d="M225,225H-25V-25h250V225z" fill="#ecf0f1" stroke-width="none" opacity="1"></path><path id="SvgjsPath5432" d="M55.036,79.068h-29v-26h29V79.068z M84.203,33H43.536v33.068h40.667V33z M63.869,99.999H100V56.401H63.869V99.999z M76.869,95.734H40.536v31.333h36.333V95.734z M175.536,13.401H126v56.667h49.536V13.401z M119.536,39.068h-12v14h12V39.068z M155.818-4.266h-48.282v28.667h48.282V-4.266z M100,5.734H74v36h26V5.734z M40.536,8.401h-14.5v15.333h14.5V8.401z M21.171,33H-1.246v34.434h22.417V33z M47.536,99.999H8.203v43.735h39.333V99.999z M26.036,173.734h44.167v-26H26.036V173.734z M131.536,163.734H100.5v22.667h31.037V163.734z M206.792,141.067h-28.718v34h28.718V141.067z M159.536,156.491h-24.667v22.667h24.667V156.491z M183.178,111.733h-35.975v40.668h35.975V111.733z M192.202,181.734h-44.999v29.333h44.999V181.734z M43.536,163.734H-5.262v44h48.797V163.734z M202.869,53.068h-33.166v26h33.166V53.068z M183.178,90.401h-14.359v14.835h14.359V90.401z M-5.262,118h27.339V79.299H-5.262V118z M33.493-5.599l-49.291,1.333V33h49.291V-5.599z M211.536-4.266h-32v40.667h32V-4.266z M61-8.266H47.536v29.333H61V-8.266z M208.869,97.818h-32.871v26.667h32.871V97.818z" fill="#c6dce2" stroke="#f9f9f9" stroke-width="0.5" opacity="1"></path></g><g id="svga-group-humanwrap-move" transform="matrix(1,0,0,1,0,0)"><g id="svga-group-humanwrap" transform="matrix(1,0,0,1,0,0)"><g id="svga-group-hair-back-move" transform="matrix(1,0,0,1,0,0)"><g id="svga-group-hair-back" transform="matrix(1,0,0,1,0,0)"><path id="SvgjsPath5288" d="M100.5,100.5h-1v-1h1V100.5z" fill="#2a232b" stroke-width="none" opacity="1"></path></g></g><g id="svga-group-humanbody-single"><path id="SvgjsPath3288" d="M195.417 199.778c-2.196-4.746-8.195-11.779-14.86-13.722 -8.239-2.403-26.837-5.308-33.733-6.923 -5.528-1.296-16.662-11.294-20.564-14.65 -0.7-0.6-1.273-1.839-1.287-2.76 -0.139-10.864 4.195-39.724 4.195-39.724H100 70.833c0 0 4.334 28.859 4.193 39.724 -0.011 0.921-0.587 2.16-1.285 2.76 -3.902 3.356-15.036 13.354-20.564 14.65 -6.897 1.615-25.495 4.619-33.733 7.022 -6.667 1.942-12.664 8.876-14.86 13.622 -3.708 8.008-4.584 22.5-4.584 35h100 100C200 222.278 199.123 207.786 195.417 199.778z" fill="#f0c7b1" stroke-width="none" opacity="1" stroke="none"></path><path id="SvgjsPath3289" d="M159.156 184.058c24.342 3.542 34.586 8.708 37.794 50.721H200c0-12.5-0.877-26.992-4.583-35 -2.196-4.746-8.195-11.779-14.86-13.722 -8.239-2.403-26.837-5.308-33.733-6.923 -5.528-1.296-18.242-12.069-21.643-16.35 3.36 4.704 12.791 15.605 21.054 18.46C150.188 182.61 153.48 183.232 159.156 184.058zM53.766 181.244c8.263-2.854 17.693-13.756 21.054-18.46 -3.4 4.28-16.114 15.054-21.643 16.35 -6.896 1.615-25.494 4.619-33.733 7.022 -6.665 1.942-12.664 8.876-14.86 13.622 -3.706 8.008-4.583 22.5-4.583 35h3.05c3.188-41.744 13.475-47.183 37.794-50.721C46.52 183.232 49.813 182.61 53.766 181.244z" fill="#ffe4d6" stroke-width="none" opacity="1" stroke="none"></path><path id="SvgjsPath3290" d="M95.646 197.62c0 0-5.074-1.609-7.083-2.379 -10.449-4.009-44.395-6.607-44.395-6.607s35.754 1.419 43.644 2.779c-0.458-4.767-3.017-20.004-3.017-20.004s5.149 16.815 6.409 21.057C91.878 194.734 95.646 197.62 95.646 197.62zM106.445 196.278c-0.089 0.073-0.191 0.168-0.302 0.268C106.256 196.461 106.358 196.372 106.445 196.278zM95.646 197.62c0 0 2.893 2.992 4.347 3.03 1.91 0.051 4.828-2.899 6.151-4.104 -1.265 0.957-4.159 1.391-5.31 1.436C99.504 198.033 95.646 197.62 95.646 197.62zM116.664 190.101c-1.545 0.248-4.386 0.789-4.386 0.789l2.287-14.89c-0.646 3.071-4.474 16.211-8.12 20.278 1.91-1.616 6.158-2.391 8.324-2.704 10.236-1.484 10.232-1.483 41.062-4.94C155.831 188.634 126.76 188.479 116.664 190.101z" fill="#e1ac8f" stroke-width="none" opacity="1" stroke="none"></path><path id="SvgjsPath3291" d="M195.417 199.778c-2.196-4.746-8.195-11.779-14.86-13.722 -8.239-2.403-26.837-5.308-33.733-6.923 -5.528-1.296-16.662-11.294-20.564-14.65 -0.7-0.6-1.273-1.839-1.287-2.76 -0.139-10.864 4.195-39.724 4.195-39.724H100 70.833c0 0 4.334 28.859 4.193 39.724 -0.011 0.921-0.587 2.16-1.285 2.76 -3.902 3.356-15.036 13.354-20.564 14.65 -6.897 1.615-25.495 4.619-33.733 7.022 -6.667 1.942-12.664 8.876-14.86 13.622 -3.708 8.008-4.584 22.5-4.584 35h100 100C200 222.278 199.123 207.786 195.417 199.778z" fill="none" stroke="#c27b55" stroke-width="1.5" opacity="1"></path></g><g id="svga-group-chinshadow-single"><path id="SvgjsPath3543" d="M75.517 163.052c6.979 4.54 16.307 8.814 24.485 8.814 7.828 0 17.345-4.309 24.458-8.869 -0.145-0.428-0.233-0.862-0.239-1.264 -0.126-9.877 3.345-34.021 4.076-38.983H71.703c0.73 4.963 4.202 29.106 4.074 38.982C75.772 162.146 75.676 162.603 75.517 163.052z" fill="url(#SvgjsLinearGradient3544)" opacity="1"></path></g><g id="svga-group-clothes-single"><path id="SvgjsPath5413" d="M128.857 237.978H70.72v-56.183c22.25 4.699 36.88 4.337 58.138 0V237.978z" fill="#f3f1f3" stroke-width="none" opacity="1"></path><path id="SvgjsPath5414" d="M107.44 237.709c-2.775 0-10.727 0.208-16.512-0.23l-0.01-0.171c-0.818-18.658 1.129-30.719 4.537-39.288l0.048-0.123 -0.093-0.093c-0.905-0.904-2.425-1.935-4.034-3.025 -1.611-1.093-3.275-2.221-4.336-3.246 0.625-0.732 1.395-1.454 2.348-2.201 0.245-0.125 1.162-0.843 5.974-4.971 0.214-0.184 0.345-0.296 0.362-0.31 0.818-0.178 2.138-0.293 3.738-0.293 2.183 0 4.731 0.221 6.512 0.563 1.561 1.458 3.451 5.329 4.158 7.17 -0.976 2.291-2.128 3.129-3.717 4.284 -0.774 0.563-1.652 1.201-2.652 2.112l-0.083 0.075 0.021 0.111c4.026 20.31 4.027 25.054 4.027 29.642 0.001 2.021 0.001 6.609 0.339 9.985C107.917 237.707 107.704 237.709 107.44 237.709z" fill="#131111" stroke-width="none" opacity="1"></path><path id="SvgjsPath5415" d="M110.35 191.495c-0.754-1.995-2.71-5.93-4.28-7.359 -2.876-0.563-7.983-0.843-10.47-0.24 -0.108 0.088-6.248 5.383-6.31 5.26 -0.906 0.708-1.788 1.504-2.52 2.39 2.061 2.076 6.655 4.556 8.5 6.4 -3.65 9.18-5.33 21.59-4.55 39.38 0.01 0.11 0.01 0.23 0.02 0.34 6.756 0.52 16.55 0.331 17.55 0.223 -1.16-11.307 1.438-10.455-4.39-39.853C106.968 195.241 108.865 195.04 110.35 191.495zM105.1 210.535c-0.021-0.05-0.04-0.1-0.051-0.13 2 10.55 1.38 18.632 2.891 26.972 -4.736-0.318-12.014-0.052-16.771-0.052 0.369-7.198 1.188-31.684 4.74-39.74 0.17-0.046 0.339-0.084 0.509-0.125l-1.032 34.736 2.747-35.066c0.02-0.002 0.04-0.005 0.06-0.008l1.801 32.605 0.417-32.734c0.026 0.001 0.051-0.001 0.077 0l4.199 36.355 -2.3-36.137c0.314 0.063 0.629 0.141 0.942 0.233 0.03 0 0.07 0.01 0.1 0.03C103.533 198.476 104.365 205.876 105.1 210.535zM104.219 196.726c-2.774-1.251-6.363-1.026-9.129 0.24 -1.681-1.813-4.08-3.077-7.53-5.391 0.55-0.479 1.26-1.07 2.21-1.81 0.08 0 3.48-2.771 3.54-2.83 0.92-0.84 1.74-1.79 2.52-2.62 2.93-0.12 7.23 0.02 9.82 0.14 1.5 1.876 2.931 4.696 4.01 6.94C107.699 194.266 105.759 195.545 104.219 196.726z" fill="#000000" stroke-width="none" opacity="1"></path><path id="SvgjsPath5416" d="M78.196 213.077c-11.534-40.071-6.325-29.581-9.399-45.32 2.028-4.813 3.958-10.44 5.042-11.598l0.08-0.086c2.292 24.007 8.958 13.636 23.784 27.722C89.228 189.449 81.372 204.127 78.196 213.077zM131.193 167.758c-1.448-3.702-4.077-9.127-5.215-10.331 1.424 20.678-15.146 16.551-24.35 26.2 8.812 5.713 17.173 20.66 20.172 29.455C134.92 169.568 127.85 188.673 131.193 167.758z" fill="#f3f1f4" stroke-width="none" opacity="1"></path><path id="SvgjsPath5417" d="M125.801 156.967c0 5.137-0.42 9.162-1.262 10.339 -2.443 5.809-13.103 9.853-16.39 11.51 -2.495 1.227-4.942 2.809-6.83 4.85 3.813 2.476 5.705 3.383 12.93 14.44 4.246 7.109 6.539 12.448 7.561 15.64 13.378-44.331 6.222-24.978 9.59-46.01C129.814 163.65 126.801 157.885 125.801 156.967zM129.449 176.495c-1.957 18.078-3.491 14.485-7.74 34.181 -2.716-8.644-11.075-22.913-19.43-27.091 3.937-2.957 5.031-3.131 9.729-5.279 14.396-6.42 14.985-12.385 14.138-20.271 1.207 1.423 3.125 6.161 4.692 9.521C129.979 170.702 129.589 175.194 129.449 176.495zM79.199 171.896c-4.408-3.649-3.16-8.162-5.189-16.215 -0.902 1-3.146 6.632-5.42 12.055 0.557 2.796 0.681 7.389 0.76 8.84 0.559 12.202 1.75 12.765 8.83 37.16 3.031-8.905 11.558-24.37 20.24-30.009C91.489 177.401 82.765 174.999 79.199 171.896zM84.659 197.405c-2.221 3.666-4.517 7.48-6.37 13.28 -4.442-20.269-5.999-16.964-7.73-34.16 -0.32-2.971-0.617-6.027-1.4-8.96 1.638-3.588 3.981-10.281 4.731-10.995 1.366 7.078 0.066 13.462 5.669 16.995 2.621 1.996 11.104 5.32 17.52 10.36C93.188 186.235 91.094 187.596 84.659 197.405z" fill="#cfc8d7" stroke-width="none" opacity="1"></path><path id="SvgjsPath5418" d="M120.319 209.824l-1.209-2.654c0 0 9.148-28.175 10.743-36.225C130.765 179.299 120.319 209.824 120.319 209.824zM78.879 208.721l1.436-3.259c0 0-8.573-26.467-10.168-34.517C69.235 179.299 78.879 208.721 78.879 208.721z" fill="#e1e0e1" stroke-width="none" opacity="1"></path><path id="SvgjsPath5419" d="M124.787 195.605c7.065-20.834 2.756-22.551 6.305-29.469 0.134-0.261 1.396 1.046 1.533 1.64 1.306 5.658 53.349 17.338 54.994 18.598 1.456 1.058 5.65 3.137 5.65 3.137 4.937 9.07 7.762 10.698 9.15 34.984 0.13 3.083-0.061 11.801-0.061 14.141l-85.559-0.676C117.004 230.169 117.999 216.15 124.787 195.605zM75.213 195.605c-7.065-20.834-2.756-22.551-6.305-29.469 -0.134-0.261-1.396 1.046-1.533 1.64 -1.306 5.658-53.349 17.338-54.994 18.598 -1.456 1.058-5.65 3.137-5.65 3.137 -4.937 9.07-7.762 10.698-9.15 34.984 -0.13 3.083 0.061 11.801 0.061 14.141l85.559-0.676C82.996 230.169 82.001 216.15 75.213 195.605z" fill="#386e77" stroke-width="none" opacity="1"></path><path id="SvgjsPath5420" d="M130.307 190c-4.552 16.387-10.771 31.116-13.506 47.96 -0.89-0.007 1.491-22.695 7.986-42.354 7.065-20.834 2.756-22.551 6.305-29.469 0.077-0.15-0.619 1.976-0.223 2.432C130.723 176.296 132.625 182.272 130.307 190zM69.693 190c4.552 16.387 10.771 31.116 13.506 47.96 0.89-0.007-1.491-22.695-7.986-42.354 -7.065-20.834-2.756-22.551-6.305-29.469 -0.077-0.15 0.619 1.976 0.223 2.432C69.277 176.296 67.375 182.272 69.693 190z" fill="#265e68" stroke-width="none" opacity="1"></path><path id="SvgjsPath5421" d="M152.436 186.031c0 0-2.284 2.561-8.636 6.923 5.313-5.885 7.761-8.249 7.761-8.249L152.436 186.031zM154.611 197.906l-1.528-1.367c-4.538 13.781-7.571 20.587-12.828 36.618C147.799 218.831 149.599 213.745 154.611 197.906zM48.439 184.705c0 0 2.447 2.364 7.761 8.249 -6.352-4.362-8.636-6.923-8.636-6.923L48.439 184.705zM59.745 233.157c-5.257-16.031-8.29-22.837-12.828-36.618l-1.528 1.367C50.401 213.745 52.201 218.831 59.745 233.157z" fill="#184f58" stroke-width="none" opacity="1"></path><path id="SvgjsPath5422" d="M179.409 219.335c0-11.596 3.11-18.351 9.615-28.142 0.608 0.372 0.931 0.543 1.345 0.875C183.452 200.651 182.078 208.659 179.409 219.335zM141.312 230.703c6.113-16.703 8.06-23.228 12.107-34.388 -1.15-0.351-8.671-2.985-9.819-3.346 0.41 1 3.113 1.822 7.822 4.709C151.422 197.679 146.333 213.082 141.312 230.703zM149.533 184.577c0 0-3.352 4.14-6.664 8.328 3.388-2.67 5.748-5.644 8.691-8.2 -3.994-3.368-10.511-8.524-14.721-12.089C140.163 176.188 149.533 184.577 149.533 184.577zM202.073 238.634l0.286 0.002c0-2.34 0.19-11.058 0.061-14.141 -1.389-24.286-4.214-25.914-9.15-34.984 0 0-4.194-2.079-5.65-3.137 -1.334-1.021-38.794-9.922-52.49-15.88 16.011 10.971 46.282 15.027 55.24 21.574C194.702 195.235 200.535 222.337 202.073 238.634zM9.613 192.037c0.542-0.383 0.619-0.366 1.168-0.729 6.505 9.791 9.809 16.431 9.809 28.026C17.922 208.659 16.08 200.318 9.613 192.037zM48.578 197.679c4.709-2.887 7.412-3.709 7.822-4.709 -1.148 0.36-8.669 2.995-9.819 3.346 4.048 11.16 5.994 17.685 12.107 34.388C53.667 213.082 48.578 197.679 48.578 197.679zM63.16 172.616c-4.21 3.564-10.727 8.721-14.721 12.089 2.943 2.557 5.304 5.53 8.691 8.2 -3.313-4.188-6.664-8.328-6.664-8.328S59.837 176.188 63.16 172.616zM9.631 192.068c8.958-6.547 39.229-10.604 55.24-21.574 -13.696 5.958-51.156 14.858-52.49 15.88 -1.456 1.058-5.65 3.137-5.65 3.137 -4.937 9.07-7.762 10.698-9.15 34.984 -0.13 3.083 0.061 11.801 0.061 14.141l0.286-0.002C-0.535 222.337 5.298 195.235 9.631 192.068z" fill="#4d7e86" stroke-width="none" opacity="1"></path><path id="SvgjsPath5423" d="M132.246 166.374c-0.049-0.293-0.443-0.634-0.738-0.657 -0.296-0.023-0.432 0.458-0.567 0.722 -3.549 6.918 0.414 8.333-6.651 29.167 -6.788 20.545-7.584 34.862-7.787 42.653l85.857 0.377c0-2.34 0.489-11.058 0.359-14.141 -1.389-24.286-4.313-26.113-9.25-35.184 0 0-4.394-2.179-5.85-3.236 -4.889-3.742-0.59 0.023-22.03-6 -17.576-5.135-18.525-6.577-24.899-8.35 -1.288-0.369-4.057-0.822-6.95-2.851C133.475 168.689 132.341 166.944 132.246 166.374zM116.974 237.31c3.729-23.564 6.085-29.73 11.296-47.274 3.522-11.104 1.576-17.408 3.254-22.54 0.088-0.268 0.467-0.282 0.571-0.017 2.434 6.214 9.238 7.656 18.834 17.047 -5.813 5.813-7.309 7.38-8.06 8.38 0.864 0.438 5.582 2.229 9.9 3.9 -0.245 0.767-13.415 38.02-13.57 38.52 10-21.578 11.292-28.211 14.22-39.01 -0.812-0.612-7.892-3.212-9.09-3.64 4.274-4.424 5.51-5.396 7.53-7.971 1.622 0-15.874-13.318-16.73-14.211 0.462 0.364 2.752 1.391 3.01 1.491 14.682 5.166 3.065 2.829 35.2 12.001 3.072 0.781 7.355 1.567 10.53 1.879 0.218 0.02 5.395 2.727 8.35 3.97 -7.189 7.475-11.797 17.133-12.81 29.5 3.219-12.666 4.951-19.29 13.14-28.819 7.62 15.422 6.755 13.195 9.23 47.71C181.167 237.413 149.559 237.227 116.974 237.31zM66.261 168.875c-2.894 2.028-5.662 2.481-6.95 2.851 -6.374 1.772-7.323 3.215-24.899 8.35 -21.44 6.023-17.142 2.258-22.03 6 -1.456 1.058-5.85 3.236-5.85 3.236 -4.937 9.07-7.861 10.897-9.25 35.184 -0.13 3.083 0.359 11.801 0.359 14.141l85.857-0.377c-0.203-7.791-0.999-22.108-7.787-42.653 -7.065-20.834-3.103-22.249-6.651-29.167 -0.136-0.264-0.271-0.745-0.567-0.722 -0.295 0.023-0.689 0.364-0.738 0.657C67.659 166.944 66.525 168.689 66.261 168.875zM-1.779 238.226c2.476-34.515 1.61-32.288 9.23-47.71 8.188 9.529 9.921 16.153 13.14 28.819 -1.013-12.367-5.62-22.025-12.81-29.5 2.955-1.243 8.132-3.95 8.35-3.97 3.175-0.312 7.458-1.098 10.53-1.879 32.135-9.172 20.519-6.835 35.2-12.001 0.258-0.101 2.548-1.127 3.01-1.491 -0.856 0.893-18.353 14.211-16.73 14.211 2.021 2.575 3.256 3.547 7.53 7.971 -1.198 0.428-8.278 3.027-9.09 3.64 2.928 10.799 4.22 17.432 14.22 39.01 -0.155-0.5-13.325-37.753-13.57-38.52 4.318-1.672 9.036-3.463 9.9-3.9 -0.751-1-2.247-2.567-8.06-8.38 9.596-9.391 16.4-10.833 18.834-17.047 0.104-0.266 0.483-0.251 0.571 0.017 1.678 5.132-0.269 11.436 3.254 22.54 5.211 17.544 7.567 23.71 11.296 47.274C50.441 237.227 18.833 237.413-1.779 238.226z" fill="#0c4049" stroke-width="none" opacity="1"></path></g><g id="svga-group-head" transform="matrix(1,0,0,1,0,0)"><g id="svga-group-ears-left-move" transform="matrix(1,0,0,1,0,0)"><g id="svga-group-ears-left" transform="matrix(1,0,0,1,0,0)"><path id="SvgjsPath3611" d="M45.671 84.344c-1.485-2.462-6.327-9.199-10.031-8.254 -3.012 0.772-2.973 4.971-3.206 7.455 -0.34 3.644-0.464 9.992 0.525 12.568 0.951 2.473 3.96 7.252 5.828 9.075 2.299 2.235 5.97 9.358 6.422 10.097 0.711 1.168 2.137 2.84 4.325 2.708 3.071-0.185 5.724-3.087 5.965-4.485C56.8 105.918 49.536 90.75 45.671 84.344z" fill="#f0c7b1" stroke="#c27b55" stroke-width="1.5" opacity="1"></path><path id="SvgjsPath3612" d="M44.2 99.341c-0.143-0.563 0.007-1.513 0.154-2.429 0.133-0.835 0.258-1.624 0.182-2.182 -0.289-2.09-1.915-6.06-2.976-8.212 -1.223-2.476-3.199-5.595-5.679-6.399 -1.024-0.333-1.699 0.065-2.089 0.468 -0.288 0.296-0.353 0.645-0.259 0.687 0.095 0.041 0.307-0.248 0.617-0.519 0.254-0.222-0.508-0.04 0 0 -0.205 1.04-0.865 6.302-0.41 10.143 0.358 3.022 1.05 5.279 1.263 5.617 0.031 0.356 0.083 0.705 0.16 1.043 1.002 4.41 7.518 10.177 9.034 11.82 0.28 0.303 0.574 0.483 0.646 0.409s-0.101-0.373-0.379-0.678c-1.498-1.632-7.971-7.381-8.939-11.635 -1.027-4.514 3.912-11.207 4.699-12.623 0.401 0.665 0.742 1.303 1.004 1.835 0.207 0.417 0.434 0.906 0.67 1.435 -0.463 0.738-5.118 6.127-3.934 10.441 0.438 1.591 3.822 3.642 5.131 4.203 0.72 0.31 0.99 0.772 1.304 1.306 0.364 0.624 0.033 2.229 1.23 2.739 0.244 0.104 0.464 0.146 0.659 0.146 0.338 0 0.594-0.13 0.783-0.284 0.02 0.271 0.019 0.619 0.009 0.941 -0.012 0.418 0.047 0.609 0.148 0.617 0.103 0.009 0.21-0.174 0.223-0.587 0.017-0.51 0.014-1.141-0.077-1.444 -0.269-0.889-1.088-1.894-1.957-2.957C44.563 102.197 44.422 100.213 44.2 99.341zM34.969 95.432c-2.348-6.923 1.283-13.229 1.81-14.179 1.012 0.399 2.562 2.193 3.221 3.235C39.52 85.321 35.067 90.775 34.969 95.432zM45.772 106.464c-1.084-0.462-0.706-1.984-1.056-2.584 -0.318-0.542-0.646-1.102-1.479-1.46 -0.18-0.078-0.379-0.196-0.583-0.332 -2.682-6.075 0.293-8.73 1.039-9.273 0.229 0.742 0.399 1.423 0.476 1.97 0.068 0.5-0.059 1.298-0.181 2.068 -0.153 0.955-0.31 1.944-0.147 2.584 0.244 0.953 0.411 2.97 1.291 4.048 0.781 0.956 1.583 1.942 1.857 2.746C46.871 106.391 46.5 106.775 45.772 106.464z" fill="#c27b55" stroke-width="none" opacity="1"></path></g></g><g id="svga-group-ears-right-move" transform="matrix(1,0,0,1,0,0)"><g id="svga-group-ears-right" transform="matrix(1,0,0,1,0,0)"><path id="SvgjsPath3613" d="M154.066 84.344c1.486-2.462 6.328-9.199 10.031-8.254 3.012 0.772 2.973 4.971 3.207 7.455 0.34 3.644 0.463 9.992-0.525 12.568 -0.951 2.473-3.961 7.252-5.828 9.075 -2.299 2.235-5.971 9.358-6.422 10.097 -0.711 1.168-2.137 2.84-4.326 2.708 -3.07-0.185-5.723-3.087-5.965-4.485C142.938 105.918 150.203 90.75 154.066 84.344z" fill="#f0c7b1" stroke="#c27b55" stroke-width="1.5" opacity="1"></path><path id="SvgjsPath3614" d="M154.322 103.243c-0.869 1.063-1.688 2.068-1.957 2.957 -0.092 0.304-0.094 0.935-0.078 1.444 0.014 0.413 0.121 0.596 0.225 0.587 0.102-0.008 0.16-0.199 0.148-0.617 -0.01-0.322-0.012-0.67 0.008-0.941 0.189 0.154 0.445 0.284 0.783 0.284 0.195 0 0.416-0.042 0.66-0.146 1.195-0.511 0.865-2.116 1.229-2.739 0.314-0.534 0.584-0.997 1.305-1.306 1.309-0.561 4.693-2.611 5.131-4.203 1.184-4.314-3.471-9.704-3.934-10.441 0.234-0.529 0.463-1.018 0.668-1.435 0.264-0.532 0.604-1.171 1.006-1.835 0.787 1.416 5.725 8.108 4.699 12.623 -0.969 4.254-7.441 10.003-8.939 11.635 -0.279 0.305-0.453 0.604-0.381 0.678 0.074 0.074 0.367-0.106 0.646-0.409 1.516-1.643 8.031-7.41 9.033-11.82 0.078-0.338 0.131-0.687 0.162-1.043 0.211-0.337 0.904-2.594 1.262-5.617 0.455-3.841-0.205-9.103-0.41-10.143 0.508-0.04-0.254-0.222 0 0 0.311 0.271 0.523 0.56 0.617 0.519 0.094-0.042 0.029-0.39-0.258-0.687 -0.391-0.403-1.066-0.801-2.09-0.468 -2.48 0.804-4.457 3.923-5.68 6.399 -1.061 2.152-2.686 6.122-2.975 8.212 -0.076 0.558 0.049 1.347 0.182 2.182 0.146 0.916 0.297 1.866 0.154 2.429C155.316 100.213 155.176 102.197 154.322 103.243zM159.738 84.488c0.66-1.042 2.209-2.835 3.221-3.235 0.527 0.95 4.158 7.256 1.811 14.179C164.672 90.775 160.219 85.321 159.738 84.488zM152.75 106.229c0.273-0.804 1.076-1.79 1.857-2.746 0.879-1.078 1.047-3.095 1.291-4.048 0.162-0.64 0.006-1.629-0.146-2.584 -0.123-0.77-0.25-1.568-0.182-2.068 0.076-0.547 0.246-1.228 0.475-1.97 0.746 0.543 3.721 3.199 1.039 9.273 -0.203 0.136-0.402 0.254-0.584 0.332 -0.832 0.358-1.16 0.918-1.479 1.46 -0.35 0.6 0.029 2.123-1.055 2.584C153.238 106.775 152.867 106.391 152.75 106.229z" fill="#c27b55" stroke-width="none" opacity="1"></path></g></g><g id="svga-group-faceshape-wrap" transform="matrix(1,0,0,1,0,0)"><g id="svga-group-faceshape-single"><path id="SvgjsPath3540" d="M100.002 0.867C66.384 0.92 39.082 28.536 39.134 62.56c0.009 5.403 0.704 10.643 2.002 15.634h0.001c0.012 0.054 8.341 20.48 10.463 33.205 2.38 14.276 10.462 30.232 16.302 35.786 6.052 5.756 20.281 14.682 32.099 14.682 11.267 0 26.046-8.926 32.099-14.682 5.84-5.554 13.922-21.51 16.302-35.786 2.122-12.725 10.452-33.151 10.463-33.205h0.002c1.298-4.992 1.994-10.231 2.002-15.634C160.923 28.536 133.62 0.92 100.002 0.867z" fill="#f0c7b1" stroke-width="none" opacity="1" stroke="none"></path><path id="SvgjsPath3541" d="M136.901 13.53c12.866 11.318 21.063 28.416 21.036 47.539 -0.009 5.403-0.671 10.642-1.906 15.634h-0.001c-0.011 0.054-7.939 20.48-9.959 33.205 -2.267 14.277-9.959 30.233-15.517 35.786 -5.761 5.757-19.828 14.683-30.552 14.683 -11.249 0-24.792-8.926-30.552-14.683 -5.558-5.553-13.25-21.509-15.516-35.786 -2.02-12.724-9.948-33.15-9.959-33.205h-0.001c-1.236-4.992-1.898-10.231-1.906-15.634 -0.028-19.122 8.168-36.218 21.033-47.537C48.519 24.809 39.104 42.574 39.134 62.56c0.009 5.403 0.704 10.643 2.002 15.634h0.001c0.012 0.054 8.341 20.48 10.463 33.205 2.38 14.276 10.462 30.232 16.302 35.786 6.052 5.756 20.281 14.682 32.099 14.682 11.267 0 26.046-8.926 32.099-14.682 5.84-5.554 13.922-21.51 16.302-35.786 2.122-12.725 10.452-33.151 10.463-33.205h0.002c1.298-4.992 1.994-10.231 2.002-15.634C160.901 42.573 151.485 24.806 136.901 13.53z" fill="#e8b9a0" stroke-width="none" opacity="1" stroke="none"></path><path id="SvgjsPath3542" d="M100.002 0.867C66.384 0.92 39.082 28.536 39.134 62.56c0.009 5.403 0.704 10.643 2.002 15.634h0.001c0.012 0.054 8.341 20.48 10.463 33.205 2.38 14.276 10.462 30.232 16.302 35.786 6.052 5.756 20.281 14.682 32.099 14.682 11.267 0 26.046-8.926 32.099-14.682 5.84-5.554 13.922-21.51 16.302-35.786 2.122-12.725 10.452-33.151 10.463-33.205h0.002c1.298-4.992 1.994-10.231 2.002-15.634C160.923 28.536 133.62 0.92 100.002 0.867z" fill="none" stroke="#c27b55" stroke-width="1.5" opacity="1"></path></g></g><g id="svga-group-mouth-single-move" transform="matrix(1,0,0,1,0,0)"><g id="svga-group-mouth-single" transform="matrix(1,0,0,1,0,0)"><path id="SvgjsPath3574" d="M100.671 140.999c-5.683-0.008-7.963-3.983-7.963-3.983 6.845 2.441 15.408 0.264 15.408 0.264S106.377 141.008 100.671 140.999z" fill="url(#SvgjsLinearGradient3575)" opacity="1"></path><path id="SvgjsPath3578" d="M81.783 130.557c3.57-0.112 10.625-0.609 13.211-0.457 1.337 0.079 3.53 0.999 4.971 1.313 1.003 0.22 4.814-0.817 5.842-0.822 2.687-0.017 8.513 1.274 11.642 1.782 0.173 0.027 0 0 0 0s-7.699 6.575-17.56 6.143C88.728 138.025 81.783 130.557 81.783 130.557S81.606 130.562 81.783 130.557z" fill="#da7c87" stroke-width="none" opacity="1" stroke="none"></path><path id="SvgjsPath3579" d="M117.743 132.177c-0.085-0.126-0.641-0.245-0.846-0.221 -0.373 0.044-0.643 0.389-1.425 0.458 -0.904 0.084-5.695 0.815-7.002 0.782 -2.629-0.064-5.647 0.561-8.157 0.451 -2.513-0.11-6.464-1.159-9.077-1.344 -1.297-0.092-6.623-1.333-7.505-1.507 -0.759-0.15-0.82-0.506-1.125-0.607 -0.215-0.074-0.832-0.023-0.999 0.09 -0.145 0.1-0.1 0.557 0.001 0.683 0.248 0.305 1.167 0.435 1.838 0.568 0.931 0.184 6.336 1.438 7.67 1.532 2.586 0.186 6.589 1.303 9.123 1.414 2.532 0.112 5.608-0.587 8.21-0.521 1.338 0.034 6.197-0.699 7.156-0.784 0.694-0.064 1.556-0.179 1.876-0.402C117.634 132.664 117.826 132.309 117.743 132.177z" fill="#ac2e3d" stroke-width="none" opacity="1" stroke="none"></path><path id="SvgjsPath3580" d="M99.999 137.244c-4.411-0.192-11.369-1.912-14.032-4.152 1.629 0.195 5.155 0.481 6.772 0.693 1.997 0.265 4.761 1.003 6.795 1.192 2.196 0.202 5.2-0.237 7.342-0.422 1.79-0.153 4.563-0.661 6.35-0.72C110.221 135.628 104.257 137.43 99.999 137.244zM107.157 132.606c1.602-0.081 4.101-0.628 5.694-0.675 -1.796-0.491-4.499-0.493-6.406-0.697 -1.646-0.174-4.155 0.69-5.787 0.804 -1.838 0.132-4.022-1.204-5.733-1.333 -1.857-0.138-5.733 0.283-7.555 0.604 1.556 0.17 4.94 0.433 6.472 0.682 1.878 0.306 4.573 0.966 6.522 1.052C102.362 133.131 105.183 132.708 107.157 132.606z" fill="#e28c96" stroke-width="none" opacity="1" stroke="none"></path><path id="SvgjsPath3581" d="M100.006 136.455c-2.626-0.118-6.989-1.062-8.873-2.365 0.482 0.022 1.884 0.146 2.348 0.189 0.146 0.015 0.293 0.031 0.438 0.05 0.757 0.101 1.489 0.304 2.271 0.515 0.759 0.207 2.481 0.47 3.329 0.557 0.167 0.019 0.333 0.027 0.501 0.034 1.043 0.048 2.983-0.061 3.943-0.21 0.609-0.095 1.182-0.192 1.77-0.247 0.32-0.032 0.669-0.047 1.061-0.049 0.336-0.003 0.689 0.006 1.036 0.017C106.063 135.841 102.713 136.574 100.006 136.455z" fill="#e99ca5" stroke-width="none" opacity="1" stroke="none"></path><path id="SvgjsPath3582" d="M79.382 131.481c0 0-0.708-1.188-0.609-1.633 0.139-0.619 1.923-1.85 1.923-1.85s-1.08 1.415-1.247 1.863C79.288 130.294 79.382 131.481 79.382 131.481z" fill="#c27b55" stroke-width="none" opacity="1" stroke="none"></path></g></g><g id="svga-group-eyes-left-move" transform="matrix(1,0,0,1,0,0)"><g id="svga-group-eyes-left" transform="matrix(1,0,0,1,0,0)"><g id="svga-group-eyesback-left"><path id="SvgjsPath5151" d="M60.942 83.152c-0.216 2.76 1.682 6.038 12.492 6.964 9.553 0.818 13.62-0.758 13.903-3.902s-3.407-6.987-12.88-7.482C66.026 78.292 61.188 80.005 60.942 83.152z" fill="url(#SvgjsRadialGradient5152)" opacity="1"></path></g><g id="svga-group-eyesiriswrapper-left" transform="matrix(1,0,0,1,0.5,0.25)"><g id="svga-group-eyesiriscontrol-left" transform="matrix(1,0,0,1,0,0)"><g id="svga-group-eyesiris-left" transform="matrix(1,0,0,1,0,0)"><path id="SvgjsPath5023" d="M79.788 85.588c-0.869 3.192-4.162 5.073-7.361 4.196 -3.197-0.876-5.084-4.178-4.214-7.371 0.869-3.195 4.168-5.076 7.365-4.198C78.772 79.09 80.659 82.392 79.788 85.588z" fill="#4e60a3" stroke="#152975" stroke-width="0.5" opacity="1"></path><path id="SvgjsPath5024" d="M79.643 84.371c-0.441 3.545-3.072 5.392-5.952 5.199 -2.658-0.179-5.034-2.14-5.254-5.525 0.919-0.264 2.14 0.165 3.211 0.001 -0.003 0.039-0.017 0.074-0.018 0.113 -0.084 1.3 0.958 2.433 2.329 2.525 1.374 0.092 2.556-0.892 2.641-2.191 0.009-0.169-0.001-0.336-0.027-0.496C77.527 84.141 78.693 83.999 79.643 84.371z" fill="#6777b2" stroke-width="none" opacity="1" stroke="none"></path><path id="SvgjsPath5025" d="M74.867 81.998c-1.319-0.377-2.667 0.376-3.007 1.691 -0.341 1.308 0.453 2.678 1.771 3.056 1.322 0.379 2.669-0.375 3.011-1.684C76.986 83.745 76.188 82.376 74.867 81.998z" fill="#000000" stroke-width="none" opacity="0.9"></path><path id="SvgjsPath5026" d="M74.867 81.998c-1.319-0.377-2.667 0.376-3.007 1.691 -0.341 1.308 0.453 2.678 1.771 3.056 1.322 0.379 2.669-0.375 3.011-1.684C76.986 83.745 76.188 82.376 74.867 81.998z" fill="none" stroke="#152975" stroke-width="0.75" opacity="1"></path><path id="SvgjsPath5027" d="M71.16 87.657c-0.125 0.437-0.806 0.251-0.681-0.188 0.121-0.423 0.446-0.683 0.653-1.055 0.221-0.398 0.831-0.042 0.609 0.356C71.571 87.078 71.257 87.314 71.16 87.657L71.16 87.657zM72.246 86.96c-0.188 0.219-0.434 1.03-0.54 1.295 -0.17 0.422 0.513 0.604 0.681 0.188 0.058-0.145 0.256-0.863 0.359-0.983C73.04 87.116 72.543 86.614 72.246 86.96L72.246 86.96zM73.716 89.048c0.369-0.425 0.332-0.912 0.324-1.441 -0.007-0.455-0.713-0.455-0.706 0 0.004 0.293 0.092 0.701-0.117 0.942C72.92 88.891 73.417 89.392 73.716 89.048L73.716 89.048zM74.437 87.519c0.005 0.438 0.06 0.865 0.189 1.285 0.134 0.434 0.815 0.249 0.681-0.188 -0.112-0.362-0.159-0.719-0.164-1.097C75.138 87.064 74.432 87.063 74.437 87.519L74.437 87.519z" fill="#ffffff" stroke-width="none" opacity="0.5"></path><path id="SvgjsPath5028" d="M78.197 82.971c-0.695 0.417-1.74 0.042-2.333-0.839 -0.592-0.881-0.503-1.934 0.193-2.349 0.694-0.419 1.742-0.043 2.33 0.838C78.979 81.502 78.893 82.554 78.197 82.971z" fill="#ffffff" stroke-width="none" opacity="0.8"></path></g></g></g><g id="svga-group-eyesfront-left"><path id="SvgjsPath5176" d="M55.772 86.694c1.203 13.754 10.653 24.163 21.106 23.249 10.453-0.915 17.952-12.807 16.749-26.561 -1.203-13.754-10.653-24.164-21.106-23.249C62.067 61.048 54.569 72.94 55.772 86.694zM60.942 83.152c0.246-3.146 5.084-4.86 13.516-4.419 9.473 0.495 13.163 4.338 12.88 7.482s-4.351 4.72-13.903 3.902C62.624 89.19 60.726 85.912 60.942 83.152z" fill="#f0c7b1" stroke-width="none" opacity="1"></path><path id="SvgjsPath5177" d="M57.798 85.194c0.596 7.711 10.263 13.338 19.882 12.458 9.616-0.885 17.535-6.722 16.834-14.425 -0.697-7.699-9.053-13.224-18.673-12.342C66.221 71.771 56.98 74.647 57.798 85.194zM60.942 83.152c0.246-3.146 5.084-4.86 13.516-4.419 9.473 0.495 13.163 4.338 12.88 7.482s-4.351 4.72-13.903 3.902C62.624 89.19 60.726 85.912 60.942 83.152z" fill="url(#SvgjsRadialGradient5178)" opacity="1"></path><path id="SvgjsPath5182" d="M60.942 83.152c-0.216 2.76 1.682 6.038 12.492 6.964 9.553 0.818 13.62-0.758 13.903-3.902s-3.407-6.987-12.88-7.482C66.026 78.292 61.188 80.005 60.942 83.152z" fill="url(#SvgjsRadialGradient5183)" opacity="1"></path><path id="SvgjsPath5186" d="M85.569 79.486c-1.025-0.673-3.285-1.602-3.285-1.602s2.571 0.588 3.59 1.279 2.082 2.366 2.082 2.366S86.594 80.159 85.569 79.486zM67.02 77.131c0 0-2.657-0.034-4.546 1.136 -1.734 1.074-2.448 2.685-2.448 2.685s1.649-1.725 2.813-2.501C63.927 77.725 67.02 77.131 67.02 77.131z" fill="#c27b55" stroke-width="none" opacity="1"></path><path id="SvgjsPath5187" d="M74.758 78.929c-6.156-0.216-15.613 0.376-13.409 6.209 -3.203-1.934-0.741-8.81 13.992-7.583 7.137 0.594 15.623 4.275 11.685 9.764C88.273 81.582 80.8 79.142 74.758 78.929zM85.623 89.012l-3.021 0.956c-5.294 0.085-8.251-0.28-13.196-0.504 -2.279-0.104-4.328-1.226-6.996-2.467 1.537 1.698 4.094 3.061 6.943 3.226 4.789 0.278 8.032 0.342 13.408 0.382L85.623 89.012z" fill="#000000" stroke-width="none" opacity="1"></path></g></g></g><g id="svga-group-eyes-right-move" transform="matrix(1,0,0,1,0,0)"><g id="svga-group-eyes-right" transform="matrix(1,0,0,1,0,0)"><g id="svga-group-eyesback-right"><path id="SvgjsPath5159" d="M139.059 83.152c0.216 2.76-1.682 6.038-12.492 6.964 -9.553 0.818-13.62-0.758-13.903-3.902s3.407-6.987 12.88-7.482C133.975 78.292 138.813 80.005 139.059 83.152z" fill="url(#SvgjsRadialGradient5160)" opacity="1"></path></g><g id="svga-group-eyesiriswrapper-right" transform="matrix(1,0,0,1,-0.5,0.25)"><g id="svga-group-eyesiriscontrol-right" transform="matrix(1,0,0,1,0,0)"><g id="svga-group-eyesiris-right" transform="matrix(1,0,0,1,0,0)"><path id="SvgjsPath5029" d="M131.788 85.588c-0.869 3.192-4.162 5.073-7.362 4.196 -3.196-0.876-5.084-4.178-4.214-7.371 0.869-3.195 4.169-5.076 7.365-4.198C130.772 79.09 132.658 82.392 131.788 85.588z" fill="#4e60a3" stroke="#152975" stroke-width="0.5" opacity="1"></path><path id="SvgjsPath5030" d="M131.643 84.371c-0.44 3.545-3.072 5.392-5.951 5.199 -2.657-0.179-5.034-2.14-5.255-5.525 0.919-0.264 2.141 0.165 3.212 0.001 -0.004 0.039-0.017 0.074-0.019 0.113 -0.085 1.3 0.958 2.433 2.329 2.525 1.374 0.092 2.555-0.892 2.64-2.191 0.009-0.169-0.001-0.336-0.026-0.496C129.527 84.141 130.693 83.999 131.643 84.371z" fill="#6777b2" stroke-width="none" opacity="1" stroke="none"></path><path id="SvgjsPath5031" d="M126.867 81.998c-1.319-0.377-2.666 0.376-3.007 1.691 -0.341 1.308 0.453 2.678 1.771 3.056 1.322 0.379 2.669-0.375 3.011-1.684C128.986 83.745 128.188 82.376 126.867 81.998z" fill="#000000" stroke-width="none" opacity="0.9"></path><path id="SvgjsPath5032" d="M126.867 81.998c-1.319-0.377-2.666 0.376-3.007 1.691 -0.341 1.308 0.453 2.678 1.771 3.056 1.322 0.379 2.669-0.375 3.011-1.684C128.986 83.745 128.188 82.376 126.867 81.998z" fill="none" stroke="#152975" stroke-width="0.75" opacity="1"></path><path id="SvgjsPath5033" d="M123.16 87.657c-0.125 0.437-0.806 0.251-0.682-0.188 0.121-0.423 0.447-0.683 0.654-1.055 0.22-0.398 0.83-0.042 0.609 0.356C123.571 87.078 123.257 87.314 123.16 87.657L123.16 87.657zM124.246 86.96c-0.188 0.219-0.434 1.03-0.54 1.295 -0.171 0.422 0.513 0.604 0.681 0.188 0.059-0.145 0.256-0.863 0.358-0.983C125.04 87.116 124.543 86.614 124.246 86.96L124.246 86.96zM125.716 89.048c0.369-0.425 0.332-0.912 0.324-1.441 -0.007-0.455-0.713-0.455-0.706 0 0.004 0.293 0.092 0.701-0.117 0.942C124.92 88.891 125.418 89.392 125.716 89.048L125.716 89.048zM126.438 87.519c0.005 0.438 0.059 0.865 0.188 1.285 0.135 0.434 0.815 0.249 0.681-0.188 -0.112-0.362-0.159-0.719-0.164-1.097C127.138 87.064 126.432 87.063 126.438 87.519L126.438 87.519z" fill="#ffffff" stroke-width="none" opacity="0.5"></path><path id="SvgjsPath5034" d="M130.197 82.971c-0.695 0.417-1.74 0.042-2.333-0.839 -0.592-0.881-0.504-1.934 0.192-2.349 0.695-0.419 1.742-0.043 2.33 0.838C130.979 81.502 130.893 82.554 130.197 82.971z" fill="#ffffff" stroke-width="none" opacity="0.8"></path></g></g></g><g id="svga-group-eyesfront-right"><path id="SvgjsPath5197" d="M127.479 60.133c-10.453-0.915-19.903 9.495-21.106 23.249 -1.203 13.754 6.296 25.646 16.749 26.561 10.453 0.914 19.903-9.495 21.106-23.249C145.432 72.94 137.934 61.048 127.479 60.133zM126.566 90.116c-9.553 0.818-13.62-0.758-13.903-3.902s3.407-6.987 12.88-7.482c8.432-0.44 13.27 1.273 13.516 4.419C139.274 85.912 137.377 89.19 126.566 90.116z" fill="#f0c7b1" stroke-width="none" opacity="1"></path><path id="SvgjsPath5198" d="M124.159 70.885c-9.62-0.882-17.976 4.643-18.673 12.342 -0.701 7.703 7.218 13.54 16.834 14.425 9.619 0.88 19.286-4.747 19.882-12.458C143.021 74.647 133.779 71.771 124.159 70.885zM126.566 90.116c-9.553 0.818-13.62-0.758-13.903-3.902s3.407-6.987 12.88-7.482c8.432-0.44 13.27 1.273 13.516 4.419C139.274 85.912 137.377 89.19 126.566 90.116z" fill="url(#SvgjsRadialGradient5199)" opacity="1"></path><path id="SvgjsPath5203" d="M139.059 83.152c0.216 2.76-1.682 6.038-12.492 6.964 -9.553 0.818-13.62-0.758-13.903-3.902s3.407-6.987 12.88-7.482C133.975 78.292 138.813 80.005 139.059 83.152z" fill="url(#SvgjsRadialGradient5204)" opacity="1"></path><path id="SvgjsPath5207" d="M112.045 81.529c0 0 1.063-1.675 2.082-2.366s3.59-1.279 3.59-1.279 -2.26 0.929-3.285 1.602S112.045 81.529 112.045 81.529zM137.161 78.451c1.164 0.776 2.813 2.501 2.813 2.501s-0.714-1.61-2.448-2.685c-1.889-1.169-4.546-1.136-4.546-1.136S136.073 77.725 137.161 78.451z" fill="#c27b55" stroke-width="none" opacity="1"></path><path id="SvgjsPath5208" d="M112.975 87.32c-3.938-5.489 4.548-9.17 11.685-9.764 14.733-1.227 17.195 5.648 13.992 7.583 2.204-5.833-7.253-6.425-13.409-6.209C119.2 79.142 111.728 81.582 112.975 87.32zM117.239 90.604c5.376-0.04 8.619-0.104 13.408-0.382 2.85-0.165 5.406-1.528 6.943-3.226 -2.668 1.241-4.717 2.363-6.996 2.467 -4.945 0.225-7.902 0.589-13.196 0.504l-3.021-0.956L117.239 90.604z" fill="#000000" stroke-width="none" opacity="1"></path></g></g></g><g id="svga-group-facehighlight-single"><path id="SvgjsPath3280" d="M141 113.974c0.035 22.622-18.292 40.994-40.938 41.025 -22.642 0.037-41.028-18.273-41.063-40.9 -0.035-22.62 18.292-41.064 40.937-41.1C122.579 72.964 140.967 91.349 141 113.974z" fill="url(#SvgjsRadialGradient3281)" opacity="1"></path><path id="SvgjsPath3284" d="M137.5 53.999c0 20.711-16.789 37.5-37.499 37.5 -20.711 0-37.501-16.789-37.501-37.5s16.79-37.5 37.501-37.5C120.711 16.499 137.5 33.288 137.5 53.999z" fill="url(#SvgjsRadialGradient3285)" opacity="1"></path></g><g id="svga-group-eyebrows-left-move" transform="matrix(1,0,0,1,0,0)"><g id="svga-group-eyebrows-left-rotate" transform="matrix(1,0,0,1,0,0)"><g id="svga-group-eyebrows-left" transform="matrix(1,0,0,1,0,0)"><path id="SvgjsPath5221" d="M55.992 72.441c14.723-3.028 32.888 2.77 33.336-0.649 0.164-1.252-0.892-1.729-1.755-1.795C72.692 68.733 60.5 68.555 55.992 72.441z" fill="#2a232b" stroke-width="none" opacity="1"></path></g></g></g><g id="svga-group-eyebrows-right-move" transform="matrix(1,0,0,1,0,0)"><g id="svga-group-eyebrows-right-rotate" transform="matrix(1,0,0,1,0,0)"><g id="svga-group-eyebrows-right" transform="matrix(1,0,0,1,0,0)"><path id="SvgjsPath5222" d="M144.008 72.441c-14.724-3.028-32.888 2.77-33.336-0.649 -0.164-1.252 0.892-1.729 1.755-1.795C127.308 68.733 139.5 68.555 144.008 72.441z" fill="#2a232b" stroke-width="none" opacity="1"></path></g></g></g><g id="svga-group-nose-single-move" transform="matrix(1,0,0,1,0,0)"><g id="svga-group-nose-single" transform="matrix(1,0,0,1,0,0)"><path id="SvgjsPath3556" d="M99.979 120.982c-2.599-0.079-7.224-2.758-6.672-5.166 0.511-2.238 3.422 0.816 6.766 0.844 3.343 0.027 7.336-1.967 7.806 0.277C108.636 120.561 104.166 121.112 99.979 120.982z" fill="#e8b9a0" stroke-width="none" opacity="1" stroke="none"></path><path id="SvgjsPath3557" d="M105.793 119.62c0.21 0.275 0.572 0.275 0.797-0.002 0.231-0.277 0.243-0.727 0.027-1.001 -1.568-2.021-4.39 0.688-4.177 0.969C102.519 119.691 104.608 118.113 105.793 119.62zM94.106 114.477c0.329 2.148 1.012 5.016 6.507 6.519 -5.417-0.161-8.937-1.169-8.908-6.206 0.015-2.549 2.678-7.79 2.678-7.79S93.758 112.207 94.106 114.477z" fill="#c27b55" stroke-width="none" opacity="1" stroke="none"></path></g></g><g id="svga-group-beardwrap" transform="matrix(1,0,0,1,0,0)"><g id="svga-group-beard-single-move" transform="matrix(1,0,0,1,0,0)"><g id="svga-group-beard-single" transform="matrix(1,0,0,1,0,0)"><path id="SvgjsPath5371" d="M120.87 131.85c-0.01-2.22-0.6-4.27-2.97-5.26 -3.38-1.41-7.77-2.78-11.12-4.25 -1.82-0.8-3.46-0.9-4.41 1.07 -1.12 2.34 0.71 2.9 2.42 3.51 13.48 4.78 13.84 2.15 13.48 19.3 -0.08 3.68-1.87 5.58-4.38 6.91 -2.62 1.38-4.31-1.11-5.94-2.77 -2.27-2.3-4.47-4.67-7.95-8.34v0c0 0 0 0 0 0 0 0 0 0 0 0v0c-3.48 3.67-5.68 6.04-7.95 8.34 -1.63 1.66-3.31 4.15-5.94 2.77 -2.51-1.32-4.31-3.23-4.38-6.91 -0.36-17.15 0-14.52 13.48-19.3 1.71-0.61 3.54-1.18 2.42-3.51 -0.95-1.97-2.59-1.87-4.41-1.07 -3.35 1.47-7.74 2.84-11.12 4.25 -2.37 0.99-2.96 3.04-2.97 5.26 -0.02 7.07-0.24 14.15 0.19 21.2 0.38 6.18 14.6 17.58 20.68 16.79 6.08 0.79 20.3-10.62 20.68-16.79C121.11 146 120.89 138.92 120.87 131.85z" fill="#2a232b" stroke-width="none" opacity="1"></path><path id="SvgjsPath5372" d="M103 167c0-2 0.16-2.67 1-5 -2.06 2.82-2.1 3.8-3.6 5.2 0-1-0.4-3.2-0.4-4.2 -0.74 0.74-1.02 3.64-1.45 4.29C98.34 166.17 96 164.62 96 163c-1 2 1 3 1 5 -7.12-4.45-14.15-8.38-17.75-16.01 0.04 1.05 0 0 0.06 1.05 0.38 6.18 14.6 17.58 20.68 16.79 6.08 0.79 20.3-10.62 20.68-16.79 0.11-1.86 0.08 0 0.11-1.86C118.12 159.93 111.31 163.68 103 167z" fill="#1b141c" stroke-width="none" opacity="1"></path></g></g></g><g id="svga-group-mustache-single-move" transform="matrix(1,0,0,1,0,0)"><g id="svga-group-mustache-single" transform="matrix(1,0,0,1,0,0)"><path id="SvgjsPath5335" d="M121.84 132.49c-14.48-1.75-10.87-2.33-17.37-2.59 -1.03-0.04-1.87-0.74-2.1-1.71 -0.19-0.83-0.61-3.02-0.31-5.48 2.65 0.32 14.42 2.84 17.17 4.68C121.48 128.93 121.54 130.75 121.84 132.49zM80.77 127.39c2.82-1.89 15.09-4.46 17.04-4.66v-0.01c0.05-0.01 0.09-0.01 0.12-0.01 0.3 2.46-0.11 4.65-0.31 5.48 -0.56 2.38-3.11 1.45-5.68 2.01 -12.16 2.53-9.03 1.72-13.79 2.29C78.46 130.75 78.52 128.93 80.77 127.39z" fill="#2a232b" stroke-width="none" opacity="1"></path><path id="SvgjsPath5336" d="M98.02 122.6c0.27 2.09 0.04 4.17-0.3 5.61 -0.24 1.01-1.12 1.74-2.15 1.78 -1.26 0.05-2.71 0.11-3.6 0.3 -12.24 2.55-8.97 1.7-13.93 2.31 0.01-0.03 0.01-0.07 0.02-0.1 0.48-0.46 0.94-0.7 0.94-0.7 6.58-4.7 17.57-0.57 18.87-9.19C97.93 122.61 97.99 122.6 98.02 122.6zM101.98 122.6c-0.27 2.09-0.04 4.17 0.3 5.61 0.24 1.01 1.12 1.74 2.15 1.78 1.26 0.05 2.71 0.11 3.6 0.3 12.24 2.55 8.97 1.7 13.93 2.31 -0.01-0.03-0.01-0.07-0.02-0.1 -0.48-0.46-0.94-0.7-0.94-0.7 -6.58-4.7-17.57-0.57-18.87-9.19C102.07 122.61 102.01 122.6 101.98 122.6zM83.87 127.6c-1.04 0.04-1.31 0.18-1.96 0.62 -0.05 0.05-1.01 0.92-0.94 0.92 -0.31 0.35-0.93 1.24-1.23 1.64C81.37 129.42 81.74 128.11 83.87 127.6zM87.49 127.91c4.34-1.52 6.03-3.11 9.13-4.25C93.8 125.4 91.42 127.39 87.49 127.91zM84.24 128.54c2.22-1.49 4.02-2.27 5.75-3C88.99 126.17 87.09 127.43 84.24 128.54zM92.24 127.41c1-0.82 2.19-0.93 3.25-1.75C94.4 126.78 93.54 126.72 92.24 127.41zM116.13 127.6c1.04 0.04 1.31 0.18 1.96 0.62 0.05 0.05 1.01 0.92 0.94 0.92 0.31 0.35 0.93 1.24 1.23 1.64C118.63 129.42 118.26 128.11 116.13 127.6zM103.38 123.66c3.09 1.14 4.78 2.73 9.13 4.25C108.58 127.39 106.2 125.4 103.38 123.66zM110.01 125.54c1.73 0.73 3.53 1.51 5.75 3C112.91 127.43 111.01 126.17 110.01 125.54zM104.51 125.66c1.06 0.82 2.25 0.93 3.25 1.75C106.46 126.72 105.6 126.78 104.51 125.66z" fill="#1b141c" stroke-width="none" opacity="1"></path><path id="SvgjsPath5337" d="M119.29 127.31c-2.94-1.97-15.41-4.51-17-4.66v-0.01c-0.08-0.01-0.25-0.03-0.31-0.03 -0.27 2.09-0.04 4.17 0.3 5.61 0.24 1.01 1.12 1.74 2.15 1.78 1.26 0.05 2.71 0.11 3.6 0.3 12.24 2.55 8.97 1.7 13.93 2.31C121.63 130.81 121.64 128.91 119.29 127.31zM108.17 129.65c-0.91-0.16-2.12-0.13-3.4-0.08 -0.75 0.03-1.42-0.47-1.61-1.19 -0.25-0.92-0.54-2.22-0.83-5.42 2.1 0.42 5.78 1.78 8.1 2.39 8.29 2.01 9.41 2.32 10.99 6.83C121.38 132.16 108.21 129.65 108.17 129.65zM78.04 132.6c4.96-0.6 1.69 0.24 13.93-2.31 0.89-0.19 2.34-0.25 3.6-0.3 1.04-0.04 1.92-0.77 2.15-1.78 0.33-1.44 0.57-3.52 0.3-5.61 -0.06 0-0.23 0.03-0.31 0.03v0.01c-1.59 0.16-14.06 2.7-17 4.66C78.36 128.91 78.37 130.81 78.04 132.6zM78.58 132.18c1.58-4.51 2.7-4.82 10.99-6.83 2.32-0.61 6-1.97 8.1-2.39 -0.29 3.2-0.58 4.5-0.83 5.42 -0.2 0.72-0.86 1.21-1.61 1.19 -1.28-0.04-2.49-0.07-3.4 0.08C91.79 129.65 78.62 132.16 78.58 132.18z" fill="#000000" stroke-width="none" opacity="1"></path></g></g><g id="svga-group-hair-front" transform="matrix(1,0,0,1,0,0)"><path id="SvgjsPath5290" d="M44.974,94.895c-2.423-8.815-3.728-16.533-5.54-24.585l0.083-0.019c-0.686-1.689-3.162-15.06-3.185-15.204c-2.525-17.77,4.993-18.784,4.84-26.198c3.165,1.585,6.242,0.799,9.019-1.365c-2.918-1.499-1.997-1.736-5.872-4.095c2.731-0.472,4.326,0.165,6.646,0.454c-1.983-1.983-5.875-6.028-8.404-5.492l-0.165-0.354c3.661-2.857,8.548,3.091,12.954,1.48C55.483,3.144,79.417-0.256,85.242-2.689c7.755-2.951,15.856-9.441,21.553-10.021c-3.225,3.241-5.2,8.449-5.347,12.358c4.698-4.486,5.03-4.355,12.151-12.264c0,6.364-1.763,7.163-4.051,10.898c6.211-4.07,13.955-15.489,25.881-17.235l0.131,0.37c-4.298,2.532-7.624,6.804-9.898,12.708c2.257-2.726,5.451-5.683,8.986-6.218l0.133,0.369c-2.215,1.325-6.554,5.742-7.547,13.138c4.381-4.893,11.35-8.948,16.134-10.48l0.187,0.346c-4.392,3.573-6.153,9.828-7.146,15.146c3.08-4.58,4.872-5.624,8.747-7.548c-1.247,1.865-1.166,1.539-2.158,3.566c2.396,6.123,10.313,6.361,11.666,17.059c1.63-1.424,2.277-1.781,4.151-3.092l0.282,0.272c-1.408,2.187-2.569,6.06-3.342,8.652c2.78-2.123,7.073-3.687,10.096-4.778l0.211,0.328c-2.551,2.593-5.648,6.546-6.162,10.834c1-0.592,1.048-0.524,2.35-1.466c0,3.081,0.105,2.688,0.127,4.105c1.257-1.125,1.45-1.282,2.276-2.181c-0.183,32.362-1.845,25.912-6.317,48.466c-0.784,3.963-2.171,10.883-3.061,14.207l-6.049,1.039c1.87-22.394-0.093-17.512,1.267-31.604c2.012-20.779-14.804-37.812-37.025-32.237c-4.496,1.128-22.44,1.127-26.934,0c-24.547-6.163-33.391,8.18-36.026,33.278c-1.291,12.318-1.607,8.161,0.267,30.563L44.974,94.895z" fill="#2a232b" stroke-width="none" opacity="1"></path><path id="SvgjsPath5291" d="M162.376,34.359c-0.021-1.418-0.127-1.024-0.127-4.105c-1.302,0.941-1.35,0.874-2.35,1.466c0.514-4.288,3.611-8.241,6.162-10.834l-0.211-0.328c-3.022,1.092-7.315,2.655-10.096,4.778c0.772-2.592,1.934-6.465,3.342-8.652l-0.282-0.272c-1.874,1.311-2.521,1.668-4.151,3.092c-1.353-10.697-9.27-10.936-11.666-17.059c0.992-2.027,0.911-1.701,2.158-3.566c-3.875,1.924-5.667,2.968-8.747,7.548c0.993-5.318,2.755-11.573,7.146-15.146l-0.187-0.346c-4.784,1.532-11.753,5.587-16.134,10.48c0.993-7.396,5.332-11.813,7.547-13.138l-0.133-0.369c-3.535,0.535-6.729,3.493-8.986,6.218c2.274-5.904,5.601-10.176,9.898-12.708l-0.131-0.37c-11.926,1.746-19.67,13.165-25.881,17.235c2.288-3.735,4.051-4.535,4.051-10.898c-7.121,7.909-7.453,7.778-12.151,12.264c0.146-3.909,2.122-9.118,5.347-12.358c-5.696,0.58-13.797,7.069-21.553,10.021C79.417-0.256,55.483,3.144,55.35,19.518c-4.406,1.611-9.293-4.337-12.954-1.48l0.165,0.354c2.529-0.537,6.421,3.508,8.404,5.492c-2.319-0.289-3.915-0.926-6.646-0.454c3.875,2.359,2.954,2.596,5.872,4.095c-2.777,2.164-5.854,2.95-9.019,1.365c0.153,7.415-7.366,8.429-4.84,26.198c0.023,0.144,2.499,13.515,3.185,15.204l-0.083,0.019c1.812,8.052,3.117,15.771,5.54,24.585L45,94.899c-0.661-16.442-11.02-39.816-4.941-54.788C40.852,38.156,43.92,33,43.92,33s9.627-1.264,10.08-5c0,0-2-1-3-2c2,1,2-2,4-1c0-2-3-1-3-3c2,0,4,0,6,2c-1-5,0-10,4-13C72,3,85,4,95-4c-1,5-2,10-2,15c6-3,8-9,13-13c1,4-1,9-1,13c3-7,7-14,16-16c-4,4-4,10-4,15c0-4,4-6,5-9c0,4,0,8,0,12c2-6,6-9,11-11c-4,4-3,8-4,13c3-3,7-4,10-7c3,6,1,11,1,17c1-5,6-8,9-12c1,5,1,10,0,15c1-3,3-5,4-8c0,4.86-0.668,9.062-1.98,13.142c1.255-1.452,3.304-2.111,3.98-4.142c0,4.325,0,7.904,0,12.027c0.58-1.192,2.29-1.608,3-3.027c-0.854,3.413-0.254,6.103-0.059,9.302c0.371-1.96,2.258-3.162,2.94-4.967c0.04-0.778,0.081-1.557,0.118-2.335c0.229,0.912,0.135,1.664-0.118,2.335c-0.912,17.771-2.593,35.516-6.256,52.628l0.648-0.111c0.89-3.324,2.276-10.244,3.061-14.207c4.473-22.554,6.135-16.104,6.317-48.466C163.826,33.078,163.633,33.235,162.376,34.359z" fill="#3a353a" stroke-width="none" opacity="1"></path><path id="SvgjsPath5292" d="M167.779,19.695c-4.949,0.834-8.406,2.438-11.05,4.25c0.385-1.005,2.193-6.67,4.14-9.05c-2.99,1.333-4.72,2.763-5.72,3.51c0-1.032-0.398-2.224-0.59-2.84c-0.189-0.515-0.348-1.117-1.271-2.62c-5.171-7.296-5.494-4.244-9.729-9.83c0.772-1.811,1.889-3.572,3.29-5.03c-3.908,0.555-5.965,2.075-8.44,4.51c-0.04,0.04-0.07,0.08-0.1,0.12c1.551-6.126,4.59-11.437,10.56-13.43c-7.384-0.268-16.525,5.192-21.12,10.64c1.984-6.381,4.646-9.421,8.601-12.25c-2.846-0.421-5.635,0.742-7.841,2.58c2.541-4.397,6.317-7.899,9.351-9.53c-0.431-0.01-0.94-0.04-1.5,0c-0.777-0.199-5.479,0.566-7.16,1.29c-8.329,3.252-14.389,10.822-16.99,13.28c1.916-3.098,2.01-5.298,1.66-8.52c-0.655,0.563-11.615,11.055-11.75,11.19c0.777-4.309,2.245-6.937,5.02-10.79c-4.947-0.926-17.332,7.217-25.01,9.39c-8.044,2.179-28.004,6.723-27.09,22.7c-4.295,0.819-10.584-6.077-13.88-0.29c2.646-1.57,6.151,2.21,8.59,4.37c-1-0.163-4.343-0.948-5.96,0.13c1.894,0.735,3.55,2.932,5.89,4.1c0.03,0.01,0.06,0.02,0.09,0.04c-2.139,1.128-4.667,2.034-6.99,1.39c-0.35-0.1-0.58-0.16-0.58-0.17c-0.27-0.12-0.56-0.24-0.87-0.38h-0.01l-0.01-0.01c-0.13-0.07-0.26-0.14-0.4-0.21c0.695,5.608-7.817,10.155-6.88,22.02c0.385,7.301,4.949,29.508,10.686,44.566l0.483,0.144c-2.392-8.626-3.777-16.74-5.569-24.701c-0.156,0-3.073-15.044-3.1-15.21c-2.506-17.631,4.994-18.91,4.85-25.84c3.121,1.561,6.532,0.436,9.18-1.73c-3.118-1.551-2.453-1.988-5.68-3.95c2.163-0.374,4.803,0.483,6.62,0.6c-2.346-2.346-6.299-6.51-8.98-5.94c3.568-2.785,8.497,3.271,13.03,1.46c0-16.383,23.723-19.635,29.77-22.16c7.271-2.766,16.283-9.476,20.939-9.95c-2.44,2.458-5.02,7.901-5.02,12.58c4.834-4.638,5.31-4.615,12.16-12.22c0,6.014-2.247,7.088-4.431,10.97c6.414-3.698,14.179-15.828,26.49-17.63c-5.154,3.037-8.435,8.325-10.41,13.97c2.352-3.059,5.8-6.53,9.63-7.11c-2.009,1.202-6.861,5.782-7.72,13.93c4.345-5.114,11.586-9.346,16.47-10.91c-4.605,3.748-6.368,10.371-7.39,16.22c1.687-2.573,3.357-4.897,5.97-6.54c0.011-0.01,0.03-0.02,0.04-0.02c1.029-0.699,0.76-0.509,2.521-1.39c-0.669,1-0.731,0.87-1.79,3.04c2.426,6.377,10.523,6.413,11.729,17.47c1.857-1.647,2.441-1.944,4.42-3.33c-1.542,2.394-2.784,6.768-3.55,9.32c2.905-2.485,8.279-4.33,10.54-5.15c-3,3.05-5.913,7.096-6.26,11.36c0.614-0.413,1.394-0.74,2.39-1.46c0,2.724,0.13,2.36,0.13,4.16c0.526-0.481,1.72-1.51,2.271-2.11c-0.196,31.716-1.88,25.564-6.311,47.91c-1.658,8.376-2.533,12.25-3.081,14.283l0.428-0.087c3.584-10.751,10.737-35.042,10.414-47.616c-0.033-4.7-1.059-14.5-1.11-15.5c-0.021,0.018-2.084,1.97-2.11,1.97c0-0.511-0.21-2.685-0.21-3.87c-0.353,0.271-1.095,0.778-2.09,1.36C161.758,26.981,163.857,24.394,167.779,19.695z" fill="#000000" stroke-width="none" opacity="1"></path></g><g id="svga-group-glasses-single-move" transform="matrix(1,0,0,1,0,0)"><g id="svga-group-glasses-single" transform="matrix(1,0,0,1,0,0)"><path id="SvgjsPath5223" d="M143.62 100.1c-2.36 2.2-6.23 3.04-13.56 3.04 -9.78 0-16.18-1.09-20.41-9.51 -3.29-6.54-4.62-13.56-3.02-15.98 2.21-3.34 8.57-5.61 15.67-6.28C134.63 77.23 143.29 88.98 143.62 100.1zM72.01 71.17c-7.64 0.21-15.09 2.35-18.27 7.05 -2.18 3.21-1.69 12.55-0.22 16.94 2 5.99 5.07 7.98 16.42 7.98 9.78 0 16.18-1.09 20.41-9.51 0.42-0.84 0.81-1.69 1.17-2.54C88.29 82.95 81.16 75.43 72.01 71.17z" fill="#ffffff" stroke-width="none" opacity="0.2"></path><path id="SvgjsPath5224" d="M146.48 95.17c-0.71 2.12-1.56 3.73-2.86 4.94 -0.33-11.12-8.99-22.87-21.33-28.74 9.37-0.89 19.99 0.99 23.97 6.86C148.44 81.44 147.95 90.77 146.48 95.17zM93.38 77.65c-2.79-4.23-12.22-6.73-21.37-6.47 9.16 4.25 16.28 11.77 19.52 19.92C93.94 85.36 94.77 79.76 93.38 77.65z" fill="#ffffff" stroke-width="none" opacity="0.4"></path><path id="SvgjsPath5225" d="M151.79 73.61c-10.18-5.46-36.14-7.01-45.5 0.15 -0.8 0.47-4.23-0.53-6.29-0.53 -1.95 0-5.42 1.05-6.29 0.53 -9.36-7.16-35.32-5.61-45.5-0.15 -1.46 0.79-1.62 4.51-0.35 5.08 0.91 0.41 1.51 0.98 1.46 1.98C49 86.29 50.55 93.59 51.23 95.6c0.87 2.59 2.44 7.41 9.29 8.6 5.83 1.01 16.43 1.48 21.94-0.17 9.99-2.98 14.24-18.04 14.42-23.17l0.01 0.02c0.4-1.8 5.82-1.8 6.23 0l0.01-0.02c0.17 5.13 4.43 20.19 14.42 23.17 5.51 1.65 16.11 1.18 21.94 0.17 6.85-1.19 8.42-6.01 9.29-8.6 0.68-2.02 2.23-9.31 1.92-14.93 -0.05-1 0.56-1.57 1.46-1.98C153.41 78.12 153.25 74.4 151.79 73.61zM81.41 101.36c-5.06 1.51-14.32 1.61-19.71 0.67 -4.54-0.79-6.44-3.26-7.7-7.03 -1.48-4.4-1.87-13.51 0.16-16.5 6.76-9.98 33.87-8.05 38.8-0.58C95.16 81.27 90.89 98.53 81.41 101.36zM146 95.01c-1.26 3.77-3.17 6.24-7.7 7.03 -5.39 0.94-14.65 0.84-19.71-0.67 -9.48-2.83-13.75-20.09-11.55-23.44 4.93-7.47 32.04-9.4 38.8 0.58C147.87 81.49 147.48 90.61 146 95.01z" fill="#26120b" stroke-width="none" opacity="1"></path><path id="SvgjsPath5226" d="M118.58 101.32c2.79 0.83 6.86 1.24 10.85 1.27 -12.54 1.22-15.39-3.4-17.12-5.16 -3.52-3.59-5.69-8.95-5.85-16.65C106.49 86.86 110.76 98.99 118.58 101.32zM93.69 73.72c-9.36-7.16-35.32-5.62-45.5-0.15C71.43 67.05 84.93 70.42 93.69 73.72zM61.68 102c-4.54-0.79-6.44-3.26-7.7-7.03 -1.32-3.93-1.77-11.62-0.4-15.35 -1.83 4.22-1.12 12.39 0.26 16.5 1.6 4.8 4.54 7.18 17.34 6.46C67.71 102.65 64.25 102.44 61.68 102zM152.97 76.3c-0.04-1.13-0.45-2.32-1.2-2.73 -9.98-5.36-35.14-6.94-44.93-0.25C120 68.05 138.97 67.31 152.97 76.3z" fill="#351d15" stroke-width="none" opacity="1"></path></g></g></g></g></g><rect id="svga-credit-rect" width="200" height="15" x="0" y="185" fill="#ecf0f1" opacity="0.5" style="display: none;"></rect><text id="svga-credit-text" font-family="Avenir Next, Roboto, Helvetica, Arial, sans-serif" font-size="10px" text-anchor="start" font-weight="400" size="10px" anchor="start" weight="400" fill="#333333" x="33.3125" y="182.609375" style="display: none;"><tspan id="SvgjsTspan3267" dy="13" x="33.3125">Created on AvatarMaker.com</tspan></text></g></svg>